<svg xmlns="http://www.w3.org/2000/svg" xmlns:xlink="http://www.w3.org/1999/xlink" contentStyleType="text/css" data-diagram-type="SEQUENCE" height="783px" preserveAspectRatio="none" style="width:700px;height:783px;background:#FFFFFF;" version="1.1" viewBox="0 0 700 783" width="700px" zoomAndPan="magnify"><defs/><g><rect fill="#F5F5F5" height="771.9219" style="stroke:#000000;stroke-width:1;" width="109.3339" x="419.4233" y="6"/><text fill="#000000" font-family="Verdana" font-size="13" font-weight="bold" lengthAdjust="spacing" textLength="65.0001" x="441.5902" y="18.0669">&#21516;&#27493;&#36164;&#28304;&#27744;</text><g><title>&#35843;&#24230;&#32447;&#31243;</title><rect fill="#90EE90" height="445.2656" style="stroke:#000000;stroke-width:1;" width="10" x="187.3134" y="289.3594"/></g><g><title>&#35843;&#24230;&#32447;&#31243;</title><rect fill="#F08080" height="356.8672" style="stroke:#000000;stroke-width:1;" width="10" x="192.3134" y="376.7578"/></g><g><title>IO&#32447;&#31243;</title><rect fill="#FFFFFF" height="14" style="stroke:#000000;stroke-width:1;" width="10" x="364.8492" y="572.5547"/></g><g><title>Surface&#27744;</title><rect fill="#FFFFFF" height="29.1328" style="stroke:#000000;stroke-width:1;" width="10" x="469.0903" y="130.6953"/></g><g><title>Surface&#27744;</title><rect fill="#FFFFFF" height="56.1328" style="stroke:#000000;stroke-width:1;" width="10" x="469.0903" y="630.4922"/></g><g><title>ReadyQueue</title><rect fill="#FFFFFF" height="14" style="stroke:#000000;stroke-width:1;" width="10" x="596.7992" y="246.2266"/></g><g><title>ReadyQueue</title><rect fill="#FFFFFF" height="14" style="stroke:#000000;stroke-width:1;" width="10" x="596.7992" y="529.4219"/></g><rect fill="#FFFFFF" height="284.8672" style="stroke:#000000;stroke-width:1;" width="556.5277" x="127.3135" y="416.7578"/><rect fill="#FFFFFF" height="203.4688" style="stroke:#000000;stroke-width:1;" width="536.5277" x="137.3135" y="491.1563"/><rect fill="#FFFFFF" height="100.0703" style="stroke:none;stroke-width:1;" width="536.5277" x="137.3135" y="594.5547"/><g><title>&#20027;&#32447;&#31243;</title><rect fill="#000000" fill-opacity="0.00000" height="687.1953" width="8" x="43.9999" y="56.4297"/><line style="stroke:#000000;stroke-width:1;" x1="47" x2="47" y1="56.4297" y2="743.625"/></g><g><title>&#35843;&#24230;&#32447;&#31243;</title><rect fill="#000000" fill-opacity="0.00000" height="687.1953" width="8" x="188.3134" y="56.4297"/><line style="stroke:#000000;stroke-width:1;" x1="191.3135" x2="191.3135" y1="56.4297" y2="743.625"/></g><g><title>IO&#32447;&#31243;</title><rect fill="#000000" fill-opacity="0.00000" height="687.1953" width="8" x="365.8492" y="56.4297"/><line style="stroke:#000000;stroke-width:1;" x1="369.275" x2="369.275" y1="56.4297" y2="743.625"/></g><g><title>Surface&#27744;</title><rect fill="#000000" fill-opacity="0.00000" height="687.1953" width="8" x="470.0903" y="56.4297"/><line style="stroke:#000000;stroke-width:1;" x1="473.4233" x2="473.4233" y1="56.4297" y2="743.625"/></g><g><title>ReadyQueue</title><rect fill="#000000" fill-opacity="0.00000" height="687.1953" width="8" x="597.7992" y="56.4297"/><line style="stroke:#000000;stroke-width:1;" x1="601.7572" x2="601.7572" y1="56.4297" y2="743.625"/></g><g class="participant participant-head" data-participant="Main"><rect fill="#FFFFFF" height="30.2969" rx="2.5" ry="2.5" style="stroke:#000000;stroke-width:1;" width="55.9998" x="20" y="25.1328"/><text fill="#000000" font-family="Verdana" font-size="14" lengthAdjust="spacing" textLength="41.9998" x="27" y="45.1279">&#20027;&#32447;&#31243;</text></g><g class="participant participant-tail" data-participant="Main"><rect fill="#FFFFFF" height="30.2969" rx="2.5" ry="2.5" style="stroke:#000000;stroke-width:1;" width="55.9998" x="20" y="742.625"/><text fill="#000000" font-family="Verdana" font-size="14" lengthAdjust="spacing" textLength="41.9998" x="27" y="762.6201">&#20027;&#32447;&#31243;</text></g><g class="participant participant-head" data-participant="Scheduler"><rect fill="#FFFFFF" height="30.2969" rx="2.5" ry="2.5" style="stroke:#000000;stroke-width:1;" width="69.9998" x="157.3135" y="25.1328"/><text fill="#000000" font-family="Verdana" font-size="14" lengthAdjust="spacing" textLength="55.9998" x="164.3135" y="45.1279">&#35843;&#24230;&#32447;&#31243;</text></g><g class="participant participant-tail" data-participant="Scheduler"><rect fill="#FFFFFF" height="30.2969" rx="2.5" ry="2.5" style="stroke:#000000;stroke-width:1;" width="69.9998" x="157.3135" y="742.625"/><text fill="#000000" font-family="Verdana" font-size="14" lengthAdjust="spacing" textLength="55.9998" x="164.3135" y="762.6201">&#35843;&#24230;&#32447;&#31243;</text></g><g class="participant participant-head" data-participant="IO"><rect fill="#FFFFFF" height="30.2969" rx="2.5" ry="2.5" style="stroke:#000000;stroke-width:1;" width="57.1483" x="341.275" y="25.1328"/><text fill="#000000" font-family="Verdana" font-size="14" lengthAdjust="spacing" textLength="43.1483" x="348.275" y="45.1279">IO&#32447;&#31243;</text></g><g class="participant participant-tail" data-participant="IO"><rect fill="#FFFFFF" height="30.2969" rx="2.5" ry="2.5" style="stroke:#000000;stroke-width:1;" width="57.1483" x="341.275" y="742.625"/><text fill="#000000" font-family="Verdana" font-size="14" lengthAdjust="spacing" textLength="43.1483" x="348.275" y="762.6201">IO&#32447;&#31243;</text></g><g class="participant participant-head" data-participant="Pool"><rect fill="#FFFFFF" height="30.2969" rx="2.5" ry="2.5" style="stroke:#000000;stroke-width:1;" width="81.3339" x="433.4233" y="25.1328"/><text fill="#000000" font-family="Verdana" font-size="14" lengthAdjust="spacing" textLength="67.3339" x="440.4233" y="45.1279">Surface&#27744;</text></g><g class="participant participant-tail" data-participant="Pool"><rect fill="#FFFFFF" height="30.2969" rx="2.5" ry="2.5" style="stroke:#000000;stroke-width:1;" width="81.3339" x="433.4233" y="742.625"/><text fill="#000000" font-family="Verdana" font-size="14" lengthAdjust="spacing" textLength="67.3339" x="440.4233" y="762.6201">Surface&#27744;</text></g><g class="participant participant-head" data-participant="ReadyQueue"><rect fill="#FFFFFF" height="30.2969" rx="2.5" ry="2.5" style="stroke:#000000;stroke-width:1;" width="104.084" x="549.7572" y="25.1328"/><text fill="#000000" font-family="Verdana" font-size="14" lengthAdjust="spacing" textLength="90.084" x="556.7572" y="45.1279">ReadyQueue</text></g><g class="participant participant-tail" data-participant="ReadyQueue"><rect fill="#FFFFFF" height="30.2969" rx="2.5" ry="2.5" style="stroke:#000000;stroke-width:1;" width="104.084" x="549.7572" y="742.625"/><text fill="#000000" font-family="Verdana" font-size="14" lengthAdjust="spacing" textLength="90.084" x="556.7572" y="762.6201">ReadyQueue</text></g><g><title>&#35843;&#24230;&#32447;&#31243;</title><rect fill="#90EE90" height="445.2656" style="stroke:#000000;stroke-width:1;" width="10" x="187.3134" y="289.3594"/></g><g><title>&#35843;&#24230;&#32447;&#31243;</title><rect fill="#F08080" height="356.8672" style="stroke:#000000;stroke-width:1;" width="10" x="192.3134" y="376.7578"/></g><g><title>IO&#32447;&#31243;</title><rect fill="#FFFFFF" height="14" style="stroke:#000000;stroke-width:1;" width="10" x="364.8492" y="572.5547"/></g><g><title>Surface&#27744;</title><rect fill="#FFFFFF" height="29.1328" style="stroke:#000000;stroke-width:1;" width="10" x="469.0903" y="130.6953"/></g><g><title>Surface&#27744;</title><rect fill="#FFFFFF" height="56.1328" style="stroke:#000000;stroke-width:1;" width="10" x="469.0903" y="630.4922"/></g><g><title>ReadyQueue</title><rect fill="#FFFFFF" height="14" style="stroke:#000000;stroke-width:1;" width="10" x="596.7992" y="246.2266"/></g><g><title>ReadyQueue</title><rect fill="#FFFFFF" height="14" style="stroke:#000000;stroke-width:1;" width="10" x="596.7992" y="529.4219"/></g><rect fill="#FFFFFF" height="3" style="stroke:#FFFFFF;stroke-width:1;" width="688.8412" x="5" y="86.9961"/><line style="stroke:#000000;stroke-width:0.5;" x1="5" x2="693.8412" y1="86.9961" y2="86.9961"/><line style="stroke:#000000;stroke-width:0.5;" x1="5" x2="693.8412" y1="89.9961" y2="89.9961"/><rect fill="#FFFFFF" height="23.1328" style="stroke:#000000;stroke-width:1;" width="96.526" x="301.1576" y="76.4297"/><text fill="#000000" font-family="Verdana" font-size="13" font-weight="bold" lengthAdjust="spacing" textLength="78.0001" x="307.1576" y="92.4966">&#20027;&#32447;&#31243;&#25805;&#20316;&#27969;</text><g class="message" data-participant-1="Main" data-participant-2="Pool"><polygon fill="#000000" points="457.0903,126.6953,467.0903,130.6953,457.0903,134.6953,461.0903,130.6953" style="stroke:#000000;stroke-width:1;"/><line style="stroke:#000000;stroke-width:1;" x1="47.9999" x2="463.0903" y1="130.6953" y2="130.6953"/><text fill="#000000" font-family="Verdana" font-size="13" lengthAdjust="spacing" textLength="105.0601" x="54.9999" y="125.6294">1. &#21152;&#38145;&#21462;Surface</text></g><g class="message" data-participant-1="Pool" data-participant-2="Main"><polygon fill="#000000" points="58.9999,155.8281,48.9999,159.8281,58.9999,163.8281,54.9999,159.8281" style="stroke:#000000;stroke-width:1;"/><line style="stroke:#000000;stroke-width:1;stroke-dasharray:2.0,2.0;" x1="52.9999" x2="473.0903" y1="159.8281" y2="159.8281"/><text fill="#000000" font-family="Verdana" font-size="13" lengthAdjust="spacing" textLength="101.5245" x="64.9999" y="154.7622">&#24377;&#20986;&#31354;&#38386;Surface</text></g><g class="message" data-participant-1="Main" data-participant-2="Main"><line style="stroke:#000000;stroke-width:1;" x1="47.9999" x2="89.9999" y1="204.0938" y2="204.0938"/><line style="stroke:#000000;stroke-width:1;" x1="89.9999" x2="89.9999" y1="204.0938" y2="217.0938"/><line style="stroke:#000000;stroke-width:1;" x1="48.9999" x2="89.9999" y1="217.0938" y2="217.0938"/><polygon fill="#000000" points="58.9999,213.0938,48.9999,217.0938,58.9999,221.0938,54.9999,217.0938" style="stroke:#000000;stroke-width:1;"/><text fill="#000000" font-family="Verdana" font-size="13" lengthAdjust="spacing" textLength="68.5357" x="54.9999" y="183.895">2. &#22635;&#20805;&#25968;&#25454;</text><text fill="#000000" font-family="Verdana" font-size="13" lengthAdjust="spacing" textLength="91.0001" x="54.9999" y="199.0278">&#65288;&#33073;&#31163;&#38145;&#20445;&#25252;&#65289;</text></g><g class="message" data-participant-1="Main" data-participant-2="ReadyQueue"><polygon fill="#000000" points="584.7992,242.2266,594.7992,246.2266,584.7992,250.2266,588.7992,246.2266" style="stroke:#000000;stroke-width:1;"/><line style="stroke:#000000;stroke-width:1;" x1="47.9999" x2="590.7992" y1="246.2266" y2="246.2266"/><text fill="#000000" font-family="Verdana" font-size="13" lengthAdjust="spacing" textLength="94.5357" x="54.9999" y="241.1606">3. &#20837;&#38431;&#23601;&#32490;&#20219;&#21153;</text></g><g class="message" data-participant-1="ReadyQueue" data-participant-2="Main"><polygon fill="#000000" points="58.9999,256.2266,48.9999,260.2266,58.9999,264.2266,54.9999,260.2266" style="stroke:#000000;stroke-width:1;"/><line style="stroke:#000000;stroke-width:1;stroke-dasharray:2.0,2.0;" x1="52.9999" x2="600.7992" y1="260.2266" y2="260.2266"/></g><g class="message" data-participant-1="Main" data-participant-2="Scheduler"><polygon fill="#000000" points="175.3134,285.3594,185.3134,289.3594,175.3134,293.3594,179.3134,289.3594" style="stroke:#000000;stroke-width:1;"/><line style="stroke:#000000;stroke-width:1;" x1="47.9999" x2="181.3134" y1="289.3594" y2="289.3594"/><text fill="#000000" font-family="Verdana" font-size="13" lengthAdjust="spacing" textLength="120.3135" x="54.9999" y="284.2935">4. notify_condition</text></g><rect fill="#FFFFFF" height="3" style="stroke:#FFFFFF;stroke-width:1;" width="688.8412" x="5" y="317.9258"/><line style="stroke:#000000;stroke-width:0.5;" x1="5" x2="693.8412" y1="317.9258" y2="317.9258"/><line style="stroke:#000000;stroke-width:0.5;" x1="5" x2="693.8412" y1="320.9258" y2="320.9258"/><rect fill="#FFFFFF" height="23.1328" style="stroke:#000000;stroke-width:1;" width="96.526" x="301.1576" y="307.3594"/><text fill="#000000" font-family="Verdana" font-size="13" font-weight="bold" lengthAdjust="spacing" textLength="78.0001" x="307.1576" y="323.4263">&#24182;&#34892;&#20107;&#20214;&#22788;&#29702;</text><g class="message" data-participant-1="IO" data-participant-2="Scheduler"><polygon fill="#000000" points="213.3134,372.7578,203.3134,376.7578,213.3134,380.7578,209.3134,376.7578" style="stroke:#000000;stroke-width:1;"/><line style="stroke:#000000;stroke-width:1;stroke-dasharray:2.0,2.0;" x1="207.3134" x2="368.8492" y1="376.7578" y2="376.7578"/><text fill="#000000" font-family="Verdana" font-size="13" lengthAdjust="spacing" textLength="82.6021" x="219.3134" y="356.5591">5. IO&#23436;&#25104;&#22238;&#35843;</text><text fill="#000000" font-family="Verdana" font-size="13" lengthAdjust="spacing" textLength="113.9214" x="219.3134" y="371.6919">(notify_condition)</text></g><path d="M127.3135,416.7578 L280.8395,416.7578 L280.8395,423.8906 L270.8395,433.8906 L127.3135,433.8906 L127.3135,416.7578" fill="#FFFFFF" style="stroke:#000000;stroke-width:1;"/><rect fill="none" height="284.8672" style="stroke:#000000;stroke-width:1;" width="556.5277" x="127.3135" y="416.7578"/><text fill="#000000" font-family="Verdana" font-size="13" font-weight="bold" lengthAdjust="spacing" textLength="104.0001" x="142.3135" y="429.8247">&#35843;&#24230;&#32447;&#31243;&#30340;&#20020;&#30028;&#21306;</text><text fill="#000000" font-family="Verdana" font-size="11" font-weight="bold" lengthAdjust="spacing" textLength="65.0543" x="295.8395" y="428.9683">[&#21407;&#23376;&#21270;&#22788;&#29702;]</text><g class="message" data-participant-1="Scheduler" data-participant-2="Scheduler"><line style="stroke:#000000;stroke-width:1;" x1="202.3134" x2="244.3134" y1="459.0898" y2="459.0898"/><line style="stroke:#000000;stroke-width:1;" x1="244.3134" x2="244.3134" y1="459.0898" y2="472.0898"/><line style="stroke:#000000;stroke-width:1;" x1="203.3134" x2="244.3134" y1="472.0898" y2="472.0898"/><polygon fill="#000000" points="213.3134,468.0898,203.3134,472.0898,213.3134,476.0898,209.3134,472.0898" style="stroke:#000000;stroke-width:1;"/><text fill="#000000" font-family="Verdana" font-size="13" lengthAdjust="spacing" textLength="133.5358" x="209.3134" y="454.0239">6. &#21516;&#27493;&#22788;&#29702;&#20004;&#31181;&#20107;&#20214;&#65306;</text></g><path d="M369.5358,438.8906 L369.5358,478.8906 L503.5358,478.8906 L503.5358,448.8906 L493.5358,438.8906 L369.5358,438.8906" fill="#FFFFFF" style="stroke:#000000;stroke-width:1;"/><path d="M493.5358,438.8906 L493.5358,448.8906 L503.5358,448.8906 L493.5358,438.8906" fill="#FFFFFF" style="stroke:#000000;stroke-width:1;"/><text fill="#000000" font-family="Verdana" font-size="13" lengthAdjust="spacing" textLength="112.8234" x="375.5358" y="455.9575">- &#20027;&#32447;&#31243;&#30340;&#20837;&#38431;&#20107;&#20214;</text><text fill="#000000" font-family="Verdana" font-size="13" lengthAdjust="spacing" textLength="113.8898" x="375.5358" y="471.0903">- IO&#32447;&#31243;&#30340;&#22238;&#25910;&#20107;&#20214;</text><path d="M137.3135,491.1563 L201.7564,491.1563 L201.7564,498.2891 L191.7564,508.2891 L137.3135,508.2891 L137.3135,491.1563" fill="#FFFFFF" style="stroke:#000000;stroke-width:1;"/><rect fill="none" height="203.4688" style="stroke:#000000;stroke-width:1;" width="536.5277" x="137.3135" y="491.1563"/><text fill="#000000" font-family="Verdana" font-size="13" font-weight="bold" lengthAdjust="spacing" textLength="19.4429" x="152.3135" y="504.2231">alt</text><text fill="#000000" font-family="Verdana" font-size="11" font-weight="bold" lengthAdjust="spacing" textLength="133.9382" x="216.7564" y="503.3667">[&#22788;&#29702;&#23601;&#32490;&#38431;&#21015; [&#26080;&#38656;&#21152;&#38145;]]</text><g class="message" data-participant-1="Scheduler" data-participant-2="ReadyQueue"><polygon fill="#000000" points="584.7992,525.4219,594.7992,529.4219,584.7992,533.4219,588.7992,529.4219" style="stroke:#000000;stroke-width:1;"/><line style="stroke:#000000;stroke-width:1;" x1="202.3134" x2="590.7992" y1="529.4219" y2="529.4219"/><text fill="#000000" font-family="Verdana" font-size="13" lengthAdjust="spacing" textLength="115.5021" x="209.3134" y="524.356">7a. &#33719;&#21462;&#24453;&#22788;&#29702;&#20219;&#21153;</text></g><g class="message" data-participant-1="ReadyQueue" data-participant-2="Scheduler"><polygon fill="#000000" points="213.3134,539.4219,203.3134,543.4219,213.3134,547.4219,209.3134,543.4219" style="stroke:#000000;stroke-width:1;"/><line style="stroke:#000000;stroke-width:1;stroke-dasharray:2.0,2.0;" x1="207.3134" x2="600.7992" y1="543.4219" y2="543.4219"/></g><g class="message" data-participant-1="Scheduler" data-participant-2="IO"><polygon fill="#000000" points="352.8492,568.5547,362.8492,572.5547,352.8492,576.5547,356.8492,572.5547" style="stroke:#000000;stroke-width:1;"/><line style="stroke:#000000;stroke-width:1;" x1="202.3134" x2="358.8492" y1="572.5547" y2="572.5547"/><text fill="#000000" font-family="Verdana" font-size="13" lengthAdjust="spacing" textLength="90.5684" x="209.3134" y="567.4888">8a. &#21551;&#21160;&#24322;&#27493;IO</text></g><g class="message" data-participant-1="IO" data-participant-2="Scheduler"><polygon fill="#000000" points="213.3134,582.5547,203.3134,586.5547,213.3134,590.5547,209.3134,586.5547" style="stroke:#000000;stroke-width:1;"/><line style="stroke:#000000;stroke-width:1;stroke-dasharray:2.0,2.0;" x1="207.3134" x2="368.8492" y1="586.5547" y2="586.5547"/></g><line style="stroke:#000000;stroke-width:1;stroke-dasharray:2.0,2.0;" x1="137.3135" x2="673.8412" y1="595.5547" y2="595.5547"/><text fill="#000000" font-family="Verdana" font-size="11" font-weight="bold" lengthAdjust="spacing" textLength="133.9382" x="142.3135" y="605.7651">[&#22788;&#29702;&#36164;&#28304;&#22238;&#25910; [&#38656;&#35201;&#21152;&#38145;]]</text><g class="message" data-participant-1="Scheduler" data-participant-2="Pool"><polygon fill="#000000" points="457.0903,626.4922,467.0903,630.4922,457.0903,634.4922,461.0903,630.4922" style="stroke:#000000;stroke-width:1;"/><line style="stroke:#000000;stroke-width:1;" x1="202.3134" x2="463.0903" y1="630.4922" y2="630.4922"/><text fill="#000000" font-family="Verdana" font-size="13" lengthAdjust="spacing" textLength="100.312" x="209.3134" y="625.4263">7b. &#24402;&#36824;Surface</text></g><g class="message" data-participant-1="Pool" data-participant-2="Pool"><line style="stroke:#000000;stroke-width:1;" x1="479.0903" x2="521.0903" y1="659.625" y2="659.625"/><line style="stroke:#000000;stroke-width:1;" x1="521.0903" x2="521.0903" y1="659.625" y2="672.625"/><line style="stroke:#000000;stroke-width:1;" x1="480.0903" x2="521.0903" y1="672.625" y2="672.625"/><polygon fill="#000000" points="490.0903,668.625,480.0903,672.625,490.0903,676.625,486.0903,672.625" style="stroke:#000000;stroke-width:1;"/><text fill="#000000" font-family="Verdana" font-size="13" lengthAdjust="spacing" textLength="78.0001" x="486.0903" y="654.5591">&#25554;&#20837;&#21487;&#29992;&#21015;&#34920;</text></g><g class="message" data-participant-1="Pool" data-participant-2="Scheduler"><polygon fill="#000000" points="213.3134,682.625,203.3134,686.625,213.3134,690.625,209.3134,686.625" style="stroke:#000000;stroke-width:1;"/><line style="stroke:#000000;stroke-width:1;stroke-dasharray:2.0,2.0;" x1="207.3134" x2="473.0903" y1="686.625" y2="686.625"/></g><!--SRC=[TLDDJnDH5Ds_Nt65ZOPC4pyGqwGkJRemLLa2CKFxQ2SPPvfXQYJfGhJLMgRG85y1X3OfjMg0OgJ2jDW_Cszckk8l-DwyVatHp68Mzznppxtdl5jw0h_2a9H5IK59KTEbg9GK5Ht6h8kcOxQTsieOY8lmz4PzEgKjY55idvKym3DLbVq0j_wUcDKXZkbe0iTICjRyk71a21EE83Ille4nKZJiuoFtF6ERHM_6-9D9zlbwlQ5OYG5jGIWKWhve-tF1kjgtpvSX54A8gGVXiOUVc0Z2tG2GVAcpiKpMjhfx85O3WO8OM122G5gNvAFfV3Cxspzxe3uJ-mVX7kKf_o3PhBrPjmidiyfrA-Tcpfngat9RxIzsldBT-jHlUe75sDBp54vX9k8-RSuUTNOEIVtCQNwtcasIBwC1PaWCz2dwDmp2Wm0egYujBBsCgafCqYLLGM9KbrwBEXxWO5oMuWazhc6iU2SYbmstR5ZcYjLia4h6ANxmJXIEUFE6-2S3r0roOjYv8jaxe6xEAhT71zxv_yIegeaoGkbq6iKrDPM4uJmukndhufUpQH33X1coUaYEYyJOudhcq83BB-aXFPcN2mwqBYhErm9VvRgrYwWw31eRZeH15EWiVcSEfALUubXbxy3UQ7GhB4cC0o5Hre7FuEOmbtBRC6DlbphxRtbsvX3uTFhTdH83uAx-fW4ZVx9TkTnX6B6uJy9yzbE68upgaSZMFYNv6cczeylJDmAZTWa2ml8YxehcpuRl1ZDKiLjT_hVetekOcgSphjRTzaulwi0V18S4mLvRfrSaQwVEHesUmYtNUeXH6KhCEwHdkcS_Yk6RAVaB]--></g></svg>