<svg xmlns="http://www.w3.org/2000/svg" xmlns:xlink="http://www.w3.org/1999/xlink" contentStyleType="text/css" data-diagram-type="SEQUENCE" height="828px" preserveAspectRatio="none" style="width:695px;height:828px;background:#FFFFFF;" version="1.1" viewBox="0 0 695 828" width="695px" zoomAndPan="magnify"><defs/><g><rect fill="#F5F5F5" height="816.1875" style="stroke:#000000;stroke-width:1;" width="243.4179" x="419.4233" y="6"/><text fill="#000000" font-family="Verdana" font-size="13" font-weight="bold" lengthAdjust="spacing" textLength="65.0001" x="508.6322" y="18.0669">&#21516;&#27493;&#36164;&#28304;&#27744;</text><g><title>&#35843;&#24230;&#32447;&#31243;</title><rect fill="#90EE90" height="488.5313" style="stroke:#000000;stroke-width:1;" width="10" x="187.3134" y="289.3594"/></g><g><title>&#35843;&#24230;&#32447;&#31243;</title><rect fill="#F08080" height="210.9297" style="stroke:#000000;stroke-width:1;" width="10" x="192.3134" y="376.7578"/></g><g><title>IO&#32447;&#31243;</title><rect fill="#FFFFFF" height="14" style="stroke:#000000;stroke-width:1;" width="10" x="364.8492" y="616.8203"/></g><g><title>Surface&#27744;</title><rect fill="#FFFFFF" height="29.1328" style="stroke:#000000;stroke-width:1;" width="10" x="469.0903" y="130.6953"/></g><g><title>Surface&#27744;</title><rect fill="#FFFFFF" height="56.1328" style="stroke:#000000;stroke-width:1;" width="10" x="469.0903" y="674.7578"/></g><g><title>ReadyQueue</title><rect fill="#FFFFFF" height="14" style="stroke:#000000;stroke-width:1;" width="10" x="591.7992" y="246.2266"/></g><g><title>ReadyQueue</title><rect fill="#FFFFFF" height="249.4688" style="stroke:#000000;stroke-width:1;" width="10" x="591.7992" y="529.4219"/></g><rect fill="#FFFFFF" height="329.1328" style="stroke:#000000;stroke-width:1;" width="551.5277" x="127.3135" y="416.7578"/><rect fill="#FFFFFF" height="247.7344" style="stroke:#000000;stroke-width:1;" width="531.5277" x="137.3135" y="491.1563"/><rect fill="#FFFFFF" height="100.0703" style="stroke:none;stroke-width:1;" width="531.5277" x="137.3135" y="638.8203"/><g><title>&#20027;&#32447;&#31243;</title><rect fill="#000000" fill-opacity="0.00000" height="731.4609" width="8" x="43.9999" y="56.4297"/><line style="stroke:#000000;stroke-width:1;" x1="47" x2="47" y1="56.4297" y2="787.8906"/></g><g><title>&#35843;&#24230;&#32447;&#31243;</title><rect fill="#000000" fill-opacity="0.00000" height="731.4609" width="8" x="188.3134" y="56.4297"/><line style="stroke:#000000;stroke-width:1;" x1="191.3135" x2="191.3135" y1="56.4297" y2="787.8906"/></g><g><title>IO&#32447;&#31243;</title><rect fill="#000000" fill-opacity="0.00000" height="731.4609" width="8" x="365.8492" y="56.4297"/><line style="stroke:#000000;stroke-width:1;" x1="369.275" x2="369.275" y1="56.4297" y2="787.8906"/></g><g><title>Surface&#27744;</title><rect fill="#000000" fill-opacity="0.00000" height="731.4609" width="8" x="470.0903" y="56.4297"/><line style="stroke:#000000;stroke-width:1;" x1="473.4233" x2="473.4233" y1="56.4297" y2="787.8906"/></g><g><title>ReadyQueue</title><rect fill="#000000" fill-opacity="0.00000" height="731.4609" width="8" x="592.7992" y="56.4297"/><line style="stroke:#000000;stroke-width:1;" x1="596.7572" x2="596.7572" y1="56.4297" y2="787.8906"/></g><g class="participant participant-head" data-participant="Main"><rect fill="#FFFFFF" height="30.2969" rx="2.5" ry="2.5" style="stroke:#000000;stroke-width:1;" width="55.9998" x="20" y="25.1328"/><text fill="#000000" font-family="Verdana" font-size="14" lengthAdjust="spacing" textLength="41.9998" x="27" y="45.1279">&#20027;&#32447;&#31243;</text></g><g class="participant participant-tail" data-participant="Main"><rect fill="#FFFFFF" height="30.2969" rx="2.5" ry="2.5" style="stroke:#000000;stroke-width:1;" width="55.9998" x="20" y="786.8906"/><text fill="#000000" font-family="Verdana" font-size="14" lengthAdjust="spacing" textLength="41.9998" x="27" y="806.8857">&#20027;&#32447;&#31243;</text></g><g class="participant participant-head" data-participant="Scheduler"><rect fill="#FFFFFF" height="30.2969" rx="2.5" ry="2.5" style="stroke:#000000;stroke-width:1;" width="69.9998" x="157.3135" y="25.1328"/><text fill="#000000" font-family="Verdana" font-size="14" lengthAdjust="spacing" textLength="55.9998" x="164.3135" y="45.1279">&#35843;&#24230;&#32447;&#31243;</text></g><g class="participant participant-tail" data-participant="Scheduler"><rect fill="#FFFFFF" height="30.2969" rx="2.5" ry="2.5" style="stroke:#000000;stroke-width:1;" width="69.9998" x="157.3135" y="786.8906"/><text fill="#000000" font-family="Verdana" font-size="14" lengthAdjust="spacing" textLength="55.9998" x="164.3135" y="806.8857">&#35843;&#24230;&#32447;&#31243;</text></g><g class="participant participant-head" data-participant="IO"><rect fill="#FFFFFF" height="30.2969" rx="2.5" ry="2.5" style="stroke:#000000;stroke-width:1;" width="57.1483" x="341.275" y="25.1328"/><text fill="#000000" font-family="Verdana" font-size="14" lengthAdjust="spacing" textLength="43.1483" x="348.275" y="45.1279">IO&#32447;&#31243;</text></g><g class="participant participant-tail" data-participant="IO"><rect fill="#FFFFFF" height="30.2969" rx="2.5" ry="2.5" style="stroke:#000000;stroke-width:1;" width="57.1483" x="341.275" y="786.8906"/><text fill="#000000" font-family="Verdana" font-size="14" lengthAdjust="spacing" textLength="43.1483" x="348.275" y="806.8857">IO&#32447;&#31243;</text></g><g class="participant participant-head" data-participant="Pool"><rect fill="#FFFFFF" height="30.2969" rx="2.5" ry="2.5" style="stroke:#000000;stroke-width:1;" width="81.3339" x="433.4233" y="25.1328"/><text fill="#000000" font-family="Verdana" font-size="14" lengthAdjust="spacing" textLength="67.3339" x="440.4233" y="45.1279">Surface&#27744;</text></g><g class="participant participant-tail" data-participant="Pool"><rect fill="#FFFFFF" height="30.2969" rx="2.5" ry="2.5" style="stroke:#000000;stroke-width:1;" width="81.3339" x="433.4233" y="786.8906"/><text fill="#000000" font-family="Verdana" font-size="14" lengthAdjust="spacing" textLength="67.3339" x="440.4233" y="806.8857">Surface&#27744;</text></g><g class="participant participant-head" data-participant="ReadyQueue"><rect fill="#FFFFFF" height="30.2969" rx="2.5" ry="2.5" style="stroke:#000000;stroke-width:1;" width="104.084" x="544.7572" y="25.1328"/><text fill="#000000" font-family="Verdana" font-size="14" lengthAdjust="spacing" textLength="90.084" x="551.7572" y="45.1279">ReadyQueue</text></g><g class="participant participant-tail" data-participant="ReadyQueue"><rect fill="#FFFFFF" height="30.2969" rx="2.5" ry="2.5" style="stroke:#000000;stroke-width:1;" width="104.084" x="544.7572" y="786.8906"/><text fill="#000000" font-family="Verdana" font-size="14" lengthAdjust="spacing" textLength="90.084" x="551.7572" y="806.8857">ReadyQueue</text></g><g><title>&#35843;&#24230;&#32447;&#31243;</title><rect fill="#90EE90" height="488.5313" style="stroke:#000000;stroke-width:1;" width="10" x="187.3134" y="289.3594"/></g><g><title>&#35843;&#24230;&#32447;&#31243;</title><rect fill="#F08080" height="210.9297" style="stroke:#000000;stroke-width:1;" width="10" x="192.3134" y="376.7578"/></g><g><title>IO&#32447;&#31243;</title><rect fill="#FFFFFF" height="14" style="stroke:#000000;stroke-width:1;" width="10" x="364.8492" y="616.8203"/></g><g><title>Surface&#27744;</title><rect fill="#FFFFFF" height="29.1328" style="stroke:#000000;stroke-width:1;" width="10" x="469.0903" y="130.6953"/></g><g><title>Surface&#27744;</title><rect fill="#FFFFFF" height="56.1328" style="stroke:#000000;stroke-width:1;" width="10" x="469.0903" y="674.7578"/></g><g><title>ReadyQueue</title><rect fill="#FFFFFF" height="14" style="stroke:#000000;stroke-width:1;" width="10" x="591.7992" y="246.2266"/></g><g><title>ReadyQueue</title><rect fill="#FFFFFF" height="249.4688" style="stroke:#000000;stroke-width:1;" width="10" x="591.7992" y="529.4219"/></g><rect fill="#FFFFFF" height="3" style="stroke:#FFFFFF;stroke-width:1;" width="683.8412" x="5" y="86.9961"/><line style="stroke:#000000;stroke-width:0.5;" x1="5" x2="688.8412" y1="86.9961" y2="86.9961"/><line style="stroke:#000000;stroke-width:0.5;" x1="5" x2="688.8412" y1="89.9961" y2="89.9961"/><rect fill="#FFFFFF" height="23.1328" style="stroke:#000000;stroke-width:1;" width="96.526" x="298.6576" y="76.4297"/><text fill="#000000" font-family="Verdana" font-size="13" font-weight="bold" lengthAdjust="spacing" textLength="78.0001" x="304.6576" y="92.4966">&#20027;&#32447;&#31243;&#25805;&#20316;&#27969;</text><g class="message" data-participant-1="Main" data-participant-2="Pool"><polygon fill="#000000" points="457.0903,126.6953,467.0903,130.6953,457.0903,134.6953,461.0903,130.6953" style="stroke:#000000;stroke-width:1;"/><line style="stroke:#000000;stroke-width:1;" x1="47.9999" x2="463.0903" y1="130.6953" y2="130.6953"/><text fill="#000000" font-family="Verdana" font-size="13" lengthAdjust="spacing" textLength="105.0601" x="54.9999" y="125.6294">1. &#21152;&#38145;&#21462;Surface</text></g><g class="message" data-participant-1="Pool" data-participant-2="Main"><polygon fill="#000000" points="58.9999,155.8281,48.9999,159.8281,58.9999,163.8281,54.9999,159.8281" style="stroke:#000000;stroke-width:1;"/><line style="stroke:#000000;stroke-width:1;stroke-dasharray:2.0,2.0;" x1="52.9999" x2="473.0903" y1="159.8281" y2="159.8281"/><text fill="#000000" font-family="Verdana" font-size="13" lengthAdjust="spacing" textLength="101.5245" x="64.9999" y="154.7622">&#24377;&#20986;&#31354;&#38386;Surface</text></g><g class="message" data-participant-1="Main" data-participant-2="Main"><line style="stroke:#000000;stroke-width:1;" x1="47.9999" x2="89.9999" y1="204.0938" y2="204.0938"/><line style="stroke:#000000;stroke-width:1;" x1="89.9999" x2="89.9999" y1="204.0938" y2="217.0938"/><line style="stroke:#000000;stroke-width:1;" x1="48.9999" x2="89.9999" y1="217.0938" y2="217.0938"/><polygon fill="#000000" points="58.9999,213.0938,48.9999,217.0938,58.9999,221.0938,54.9999,217.0938" style="stroke:#000000;stroke-width:1;"/><text fill="#000000" font-family="Verdana" font-size="13" lengthAdjust="spacing" textLength="68.5357" x="54.9999" y="183.895">2. &#22635;&#20805;&#25968;&#25454;</text><text fill="#000000" font-family="Verdana" font-size="13" lengthAdjust="spacing" textLength="78.0001" x="54.9999" y="199.0278">&#65288;&#26080;&#38145;&#25805;&#20316;&#65289;</text></g><g class="message" data-participant-1="Main" data-participant-2="ReadyQueue"><polygon fill="#000000" points="579.7992,242.2266,589.7992,246.2266,579.7992,250.2266,583.7992,246.2266" style="stroke:#000000;stroke-width:1;"/><line style="stroke:#000000;stroke-width:1;" x1="47.9999" x2="585.7992" y1="246.2266" y2="246.2266"/><text fill="#000000" font-family="Verdana" font-size="13" lengthAdjust="spacing" textLength="120.5358" x="54.9999" y="241.1606">3. &#21152;&#38145;&#20837;&#38431;&#23601;&#32490;&#20219;&#21153;</text></g><g class="message" data-participant-1="ReadyQueue" data-participant-2="Main"><polygon fill="#000000" points="58.9999,256.2266,48.9999,260.2266,58.9999,264.2266,54.9999,260.2266" style="stroke:#000000;stroke-width:1;"/><line style="stroke:#000000;stroke-width:1;stroke-dasharray:2.0,2.0;" x1="52.9999" x2="595.7992" y1="260.2266" y2="260.2266"/></g><g class="message" data-participant-1="Main" data-participant-2="Scheduler"><polygon fill="#000000" points="175.3134,285.3594,185.3134,289.3594,175.3134,293.3594,179.3134,289.3594" style="stroke:#000000;stroke-width:1;"/><line style="stroke:#000000;stroke-width:1;" x1="47.9999" x2="181.3134" y1="289.3594" y2="289.3594"/><text fill="#000000" font-family="Verdana" font-size="13" lengthAdjust="spacing" textLength="120.3135" x="54.9999" y="284.2935">4. notify_condition</text></g><rect fill="#FFFFFF" height="3" style="stroke:#FFFFFF;stroke-width:1;" width="683.8412" x="5" y="317.9258"/><line style="stroke:#000000;stroke-width:0.5;" x1="5" x2="688.8412" y1="317.9258" y2="317.9258"/><line style="stroke:#000000;stroke-width:0.5;" x1="5" x2="688.8412" y1="320.9258" y2="320.9258"/><rect fill="#FFFFFF" height="23.1328" style="stroke:#000000;stroke-width:1;" width="96.526" x="298.6576" y="307.3594"/><text fill="#000000" font-family="Verdana" font-size="13" font-weight="bold" lengthAdjust="spacing" textLength="78.0001" x="304.6576" y="323.4263">&#24182;&#34892;&#20107;&#20214;&#22788;&#29702;</text><g class="message" data-participant-1="IO" data-participant-2="Scheduler"><polygon fill="#000000" points="213.3134,372.7578,203.3134,376.7578,213.3134,380.7578,209.3134,376.7578" style="stroke:#000000;stroke-width:1;"/><line style="stroke:#000000;stroke-width:1;stroke-dasharray:2.0,2.0;" x1="207.3134" x2="368.8492" y1="376.7578" y2="376.7578"/><text fill="#000000" font-family="Verdana" font-size="13" lengthAdjust="spacing" textLength="82.6021" x="219.3134" y="356.5591">5. IO&#23436;&#25104;&#22238;&#35843;</text><text fill="#000000" font-family="Verdana" font-size="13" lengthAdjust="spacing" textLength="113.9214" x="219.3134" y="371.6919">(notify_condition)</text></g><path d="M127.3135,416.7578 L280.8395,416.7578 L280.8395,423.8906 L270.8395,433.8906 L127.3135,433.8906 L127.3135,416.7578" fill="#FFFFFF" style="stroke:#000000;stroke-width:1;"/><rect fill="none" height="329.1328" style="stroke:#000000;stroke-width:1;" width="551.5277" x="127.3135" y="416.7578"/><text fill="#000000" font-family="Verdana" font-size="13" font-weight="bold" lengthAdjust="spacing" textLength="104.0001" x="142.3135" y="429.8247">&#35843;&#24230;&#32447;&#31243;&#30340;&#20020;&#30028;&#21306;</text><text fill="#000000" font-family="Verdana" font-size="11" font-weight="bold" lengthAdjust="spacing" textLength="54.0544" x="295.8395" y="428.9683">[&#21452;&#38145;&#20445;&#25252;]</text><g class="message" data-participant-1="Scheduler" data-participant-2="Scheduler"><line style="stroke:#000000;stroke-width:1;" x1="202.3134" x2="244.3134" y1="459.0898" y2="459.0898"/><line style="stroke:#000000;stroke-width:1;" x1="244.3134" x2="244.3134" y1="459.0898" y2="472.0898"/><line style="stroke:#000000;stroke-width:1;" x1="203.3134" x2="244.3134" y1="472.0898" y2="472.0898"/><polygon fill="#000000" points="213.3134,468.0898,203.3134,472.0898,213.3134,476.0898,209.3134,472.0898" style="stroke:#000000;stroke-width:1;"/><text fill="#000000" font-family="Verdana" font-size="13" lengthAdjust="spacing" textLength="133.5358" x="209.3134" y="454.0239">6. &#21516;&#27493;&#22788;&#29702;&#20004;&#31181;&#20107;&#20214;&#65306;</text></g><path d="M369.5358,438.8906 L369.5358,478.8906 L628.5358,478.8906 L628.5358,448.8906 L618.5358,438.8906 L369.5358,438.8906" fill="#FFFFFF" style="stroke:#000000;stroke-width:1;"/><path d="M618.5358,438.8906 L618.5358,448.8906 L628.5358,448.8906 L618.5358,438.8906" fill="#FFFFFF" style="stroke:#000000;stroke-width:1;"/><text fill="#000000" font-family="Verdana" font-size="13" lengthAdjust="spacing" textLength="238.7166" x="375.5358" y="455.9575">- &#20107;&#20214;&#31867;&#22411;A&#65306;&#22788;&#29702;&#23601;&#32490;&#38431;&#21015;&#65288;&#38656;&#38431;&#21015;&#38145;&#65289;</text><text fill="#000000" font-family="Verdana" font-size="13" lengthAdjust="spacing" textLength="223.2663" x="375.5358" y="471.0903">- &#20107;&#20214;&#31867;&#22411;B&#65306;Surface&#22238;&#25910;&#65288;&#38656;&#27744;&#38145;&#65289;</text><path d="M137.3135,491.1563 L201.7564,491.1563 L201.7564,498.2891 L191.7564,508.2891 L137.3135,508.2891 L137.3135,491.1563" fill="#FFFFFF" style="stroke:#000000;stroke-width:1;"/><rect fill="none" height="247.7344" style="stroke:#000000;stroke-width:1;" width="531.5277" x="137.3135" y="491.1563"/><text fill="#000000" font-family="Verdana" font-size="13" font-weight="bold" lengthAdjust="spacing" textLength="19.4429" x="152.3135" y="504.2231">alt</text><text fill="#000000" font-family="Verdana" font-size="11" font-weight="bold" lengthAdjust="spacing" textLength="144.9381" x="216.7564" y="503.3667">[&#22788;&#29702;&#23601;&#32490;&#38431;&#21015; [&#33719;&#21462;&#38431;&#21015;&#38145;]]</text><g class="message" data-participant-1="Scheduler" data-participant-2="ReadyQueue"><polygon fill="#000000" points="579.7992,525.4219,589.7992,529.4219,579.7992,533.4219,583.7992,529.4219" style="stroke:#000000;stroke-width:1;"/><line style="stroke:#000000;stroke-width:1;" x1="202.3134" x2="585.7992" y1="529.4219" y2="529.4219"/><text fill="#000000" font-family="Verdana" font-size="13" lengthAdjust="spacing" textLength="102.502" x="209.3134" y="524.356">7a. &#38145;&#23450;&#23601;&#32490;&#38431;&#21015;</text></g><g class="message" data-participant-1="ReadyQueue" data-participant-2="Scheduler"><polygon fill="#000000" points="213.3134,554.5547,203.3134,558.5547,213.3134,562.5547,209.3134,558.5547" style="stroke:#000000;stroke-width:1;"/><line style="stroke:#000000;stroke-width:1;stroke-dasharray:2.0,2.0;" x1="207.3134" x2="590.7992" y1="558.5547" y2="558.5547"/><text fill="#000000" font-family="Verdana" font-size="13" lengthAdjust="spacing" textLength="91.0001" x="219.3134" y="553.4888">&#21462;&#20986;&#24453;&#22788;&#29702;&#20219;&#21153;</text></g><g class="message" data-participant-1="Scheduler" data-participant-2="ReadyQueue"><polygon fill="#000000" points="579.7992,583.6875,589.7992,587.6875,579.7992,591.6875,583.7992,587.6875" style="stroke:#000000;stroke-width:1;"/><line style="stroke:#000000;stroke-width:1;" x1="197.3134" x2="585.7992" y1="587.6875" y2="587.6875"/><text fill="#000000" font-family="Verdana" font-size="13" lengthAdjust="spacing" textLength="65.0001" x="204.3134" y="582.6216">&#37322;&#25918;&#38431;&#21015;&#38145;</text></g><g class="message" data-participant-1="Scheduler" data-participant-2="IO"><polygon fill="#000000" points="352.8492,612.8203,362.8492,616.8203,352.8492,620.8203,356.8492,616.8203" style="stroke:#000000;stroke-width:1;"/><line style="stroke:#000000;stroke-width:1;" x1="197.3134" x2="358.8492" y1="616.8203" y2="616.8203"/><text fill="#000000" font-family="Verdana" font-size="13" lengthAdjust="spacing" textLength="90.5684" x="204.3134" y="611.7544">8a. &#21551;&#21160;&#24322;&#27493;IO</text></g><g class="message" data-participant-1="IO" data-participant-2="Scheduler"><polygon fill="#000000" points="208.3134,626.8203,198.3134,630.8203,208.3134,634.8203,204.3134,630.8203" style="stroke:#000000;stroke-width:1;"/><line style="stroke:#000000;stroke-width:1;stroke-dasharray:2.0,2.0;" x1="202.3134" x2="368.8492" y1="630.8203" y2="630.8203"/></g><line style="stroke:#000000;stroke-width:1;stroke-dasharray:2.0,2.0;" x1="137.3135" x2="668.8412" y1="639.8203" y2="639.8203"/><text fill="#000000" font-family="Verdana" font-size="11" font-weight="bold" lengthAdjust="spacing" textLength="133.9382" x="142.3135" y="650.0308">[&#22788;&#29702;&#36164;&#28304;&#22238;&#25910; [&#33719;&#21462;&#27744;&#38145;]]</text><g class="message" data-participant-1="Scheduler" data-participant-2="Pool"><polygon fill="#000000" points="457.0903,670.7578,467.0903,674.7578,457.0903,678.7578,461.0903,674.7578" style="stroke:#000000;stroke-width:1;"/><line style="stroke:#000000;stroke-width:1;" x1="197.3134" x2="463.0903" y1="674.7578" y2="674.7578"/><text fill="#000000" font-family="Verdana" font-size="13" lengthAdjust="spacing" textLength="113.3121" x="204.3134" y="669.6919">7b. &#38145;&#23450;Surface&#27744;</text></g><g class="message" data-participant-1="Pool" data-participant-2="Pool"><line style="stroke:#000000;stroke-width:1;" x1="479.0903" x2="521.0903" y1="703.8906" y2="703.8906"/><line style="stroke:#000000;stroke-width:1;" x1="521.0903" x2="521.0903" y1="703.8906" y2="716.8906"/><line style="stroke:#000000;stroke-width:1;" x1="480.0903" x2="521.0903" y1="716.8906" y2="716.8906"/><polygon fill="#000000" points="490.0903,712.8906,480.0903,716.8906,490.0903,720.8906,486.0903,716.8906" style="stroke:#000000;stroke-width:1;"/><text fill="#000000" font-family="Verdana" font-size="13" lengthAdjust="spacing" textLength="78.0001" x="486.0903" y="698.8247">&#25554;&#20837;&#21487;&#29992;&#21015;&#34920;</text></g><g class="message" data-participant-1="Pool" data-participant-2="Scheduler"><polygon fill="#000000" points="208.3134,726.8906,198.3134,730.8906,208.3134,734.8906,204.3134,730.8906" style="stroke:#000000;stroke-width:1;"/><line style="stroke:#000000;stroke-width:1;stroke-dasharray:2.0,2.0;" x1="202.3134" x2="473.0903" y1="730.8906" y2="730.8906"/></g><!--SRC=[TLDTRn9157sVNt6bBvfcIVoeDIIOw8C93mQrZsrZjZ25JTPTibsCJNYmMbgaL8XICLXhIQYYnduOMzi5sp-pCmjF_GlExC2oIzFi0xlCkVUSU-RSAsOQFyEGKML5GndPC9M4af4r4qBsSTknpfpMMWZa1NXuuRox_vfONtsGgKGQ9xCgDeAuMDo7YSKHcjDVG8XKIlJNJlTmcLeLUh0TWh474_m9ravbZNavWLq0gtwawseGy0JBoSN7MPp5Bc3uYR2M1CQ4K3GAtYZq_RhzRvCUBa4qYX2V2QIxRjlnyGXS3mCfRlUgIwJyeS-C-1b83CJ1aXG1qZaXgvRptUhLVWz0NYV-6u4Rh4_Z9yddwSO-NT-TqSux1LhZZGN_UUUDLp5Kp1NSz1JaTteVlv3z0wVzmswtIR61XaYV7l0QUUv7u5OODDrKvXUV9dGjgPYAhY4vOIhFPHCFSJ2cAgcqcJ8mrboNoCbHjr6ohJMxVKIQoqvbnNKf5dVvVFqdmkmUoMw95YhaqnRBmOnsTPJmskMC2TsGLOHokHnA6Nes0_uaEVLb-_YFir4Y9GkcIRd4pB3FFjDYSnOD6mNrt6QkkN4IgktZflDjNSnntgaZ9Ws3mPcH1E9lvw1DjjRkiLDH8epcZXTgxB9wco_5EoFdbnKiky_A-ZVFngVL8r71Gjg7y-XnKeHarOIB333TVVkNPSpZc4KGc2qOYaav33mIktL_4mGZWV0PmdgpZ9BJVDyG4Q3BE7YgUwj5MZtr18rWOt6kuuxCVTuZnHRfl69kirs6qN184iBg0kuFBTPRc3GOMjWqEl5W1IVd1hCELn-1M4A1YW0jlsFhGSfxJhN5v7ORhG5YL8cMTE_2JPcRDvJ45sFv7m00]--></g></svg>